HIERARCHY
ROOT SimulationBone
{
	OFFSET 0.000000 0.000000 0.000000
	CHANNELS 6 Xposition Yposition Zposition Zrotation Yrotation Xrotation 
	JOINT Hips
	{
		OFFSET 0.000000 0.000000 0.000000
		CHANNELS 6 Xposition Yposition Zposition Zrotation Yrotation Xrotation 
		JOINT RightUpLeg
		{
			OFFSET 0.103457 1.857818 10.548502
			CHANNELS 3 Zrotation Yrotation Xrotation
			JOINT RightLeg
			{
				OFFSET 43.500000 -0.000011 -0.000004
				CHANNELS 3 Zrotation Yrotation Xrotation
				JOINT RightFoot
				{
					OFFSET 42.372192 -0.000004 -0.000008
					CHANNELS 3 Zrotation Yrotation Xrotation
					JOINT RightToe
					{
						OFFSET 17.300014 0.000006 0.000001
						CHANNELS 3 Zrotation Yrotation Xrotation
						End Site
						{
							OFFSET 0.000000 0.000000 0.000000
						}
					}
				}
			}
		}
		JOINT LeftUpLeg
		{
			OFFSET 0.103457 1.857817 -10.548505
			CHANNELS 3 Zrotation Yrotation Xrotation
			JOINT LeftLeg
			{
				OFFSET 43.500046 -0.000004 0.000011
				CHANNELS 3 Zrotation Yrotation Xrotation
				JOINT LeftFoot
				{
					OFFSET 42.372257 0.000000 0.000015
					CHANNELS 3 Zrotation Yrotation Xrotation
					JOINT LeftToe
					{
						OFFSET 17.300003 -0.000000 0.000002
						CHANNELS 3 Zrotation Yrotation Xrotation
						End Site
						{
							OFFSET 0.000000 0.000000 0.000000
						}
					}
				}
			}
		}
		JOINT Spine
		{
			OFFSET 6.901961 -2.603721 -0.000001
			CHANNELS 3 Zrotation Yrotation Xrotation
			JOINT Spine1
			{
				OFFSET 12.588108 0.000002 -0.000001
				CHANNELS 3 Zrotation Yrotation Xrotation
				JOINT Spine2
				{
					OFFSET 12.343199 -0.000020 0.000006
					CHANNELS 3 Zrotation Yrotation Xrotation
					JOINT Neck
					{
						OFFSET 25.832905 0.000017 0.000000
						CHANNELS 3 Zrotation Yrotation Xrotation
						JOINT Head
						{
							OFFSET 11.766604 -0.000006 0.000004
							CHANNELS 3 Zrotation Yrotation Xrotation
							End Site
							{
								OFFSET 0.000000 0.000000 0.000000
							}
						}
					}
					JOINT RightShoulder
					{
						OFFSET 19.745903 -1.480350 6.000100
						CHANNELS 3 Zrotation Yrotation Xrotation
						JOINT RightArm
						{
							OFFSET 11.284130 -0.000016 -0.000016
							CHANNELS 3 Zrotation Yrotation Xrotation
							JOINT RightForeArm
							{
								OFFSET 33.000046 0.000004 0.000031
								CHANNELS 3 Zrotation Yrotation Xrotation
								JOINT RightHand
								{
									OFFSET 25.199999 0.000027 0.000001
									CHANNELS 3 Zrotation Yrotation Xrotation
									End Site
									{
										OFFSET 0.000000 0.000000 0.000000
									}
								}
							}
						}
					}
					JOINT LeftShoulder
					{
						OFFSET 19.746094 -1.480375 -6.000080
						CHANNELS 3 Zrotation Yrotation Xrotation
						JOINT LeftArm
						{
							OFFSET 11.284131 -0.000016 -0.000017
							CHANNELS 3 Zrotation Yrotation Xrotation
							JOINT LeftForeArm
							{
								OFFSET 33.000095 0.000009 0.000020
								CHANNELS 3 Zrotation Yrotation Xrotation
								JOINT LeftHand
								{
									OFFSET 25.199789 0.000132 0.000423
									CHANNELS 3 Zrotation Yrotation Xrotation
									End Site
									{
										OFFSET 0.000000 0.000000 0.000000
									}
								}
							}
						}
					}
				}
			}
		}
	}
}
MOTION
Frames: 7
Frame Time: 0.016667
111.717526 0.000000 528.407121 180.000000 83.771519 180.000000 -6.757566 88.899040 3.183417 79.608958 6.538947 173.909725 149.648665 8.453998 164.925313 -38.474499 1.420780 -7.702860 83.928066 5.896574 2.564486 21.454557 0.003108 0.000017 178.731844 3.168101 -176.078247 -35.616328 3.766276 -5.974819 68.631550 9.468518 14.310260 21.454553 -0.003093 -0.000000 7.925047 -0.182660 2.424682 5.827092 -0.486527 4.837154 5.510197 -0.457490 4.839993 -5.054022 5.995024 3.916004 -12.147322 -16.577245 10.587540 -140.465078 -74.515488 -41.893983 39.605599 30.583493 63.435094 -77.907186 -7.408407 2.333380 -7.915675 -10.602518 31.568973 160.798564 83.676515 -17.753426 -27.692991 -48.375920 -9.313023 -116.109390 1.337535 -3.540502 12.899632 -6.220815 -57.894745 
112.236623 0.000000 526.630303 180.000000 82.195073 180.000000 -6.689682 88.403717 3.131757 79.740143 6.983366 174.001875 151.705642 8.967977 165.427959 -34.819152 1.129450 -8.774992 84.699281 6.912567 4.137779 21.454555 0.003106 0.000017 178.178104 2.435011 -177.956492 -39.601437 3.723842 -5.635522 68.809846 8.723641 13.011794 21.454552 -0.003093 0.000001 7.966506 -0.077820 2.303830 5.914761 -0.272679 4.600673 5.597756 -0.245065 4.602225 -4.016237 6.297074 3.589530 -13.024899 -16.651736 10.444616 -139.715424 -74.349452 -42.667047 40.819316 30.815007 62.459277 -79.505864 -6.863185 2.363960 -7.970721 -9.876234 32.659417 163.729110 83.511008 -14.804354 -25.522792 -48.040220 -10.660281 -117.138588 1.229060 -3.575611 12.213696 -6.796472 -55.816102 
112.734174 0.000000 524.850898 180.000000 80.608781 180.000000 -6.641228 87.586517 3.098476 80.036482 7.384026 174.199448 153.615612 9.519314 166.267882 -32.801310 0.949528 -10.286484 86.603185 8.337259 7.076847 21.454555 0.003106 0.000016 177.546027 1.863911 -179.433741 -44.229357 3.683681 -4.934388 69.693870 7.834878 12.289833 21.454553 -0.003092 0.000002 8.042158 0.019875 2.179008 6.070108 -0.074007 4.356019 5.752991 -0.047863 4.356374 -2.697067 6.754433 3.203176 -14.131239 -16.714668 10.286124 -139.161714 -74.170598 -43.240777 41.654505 31.247305 61.051208 -81.411203 -6.123976 2.395503 -7.871768 -9.357054 33.173616 168.192382 83.337696 -10.306193 -22.971645 -47.843473 -12.095257 -118.053303 1.125882 -3.606204 11.584734 -7.411242 -53.783559 
113.198700 0.000000 523.059467 180.000000 79.017241 180.000000 -6.642782 86.444925 3.084405 80.485066 7.661278 174.532471 155.144112 10.115109 167.277379 -32.950649 0.984554 -11.958020 90.447657 9.690623 11.233412 21.454556 0.003109 0.000016 176.828459 1.610553 179.672767 -49.477043 3.544135 -4.065365 71.410385 7.018425 12.378136 21.454555 -0.003092 0.000005 8.153984 0.088367 2.037865 6.296340 0.066227 4.077474 5.979103 0.090690 4.076986 -1.218045 7.245557 2.796139 -15.321824 -16.651938 10.061869 -138.850353 -73.959056 -43.568640 41.934283 31.914693 59.261114 -83.426239 -5.246315 2.424517 -7.615392 -9.152128 32.986758 173.962762 83.099658 -4.485657 -20.169956 -47.763959 -13.573510 -118.744346 1.021253 -3.627347 10.934176 -7.917682 -51.689659 
113.615915 0.000000 521.245318 180.000000 77.428272 180.000000 -6.703886 85.126457 3.048190 81.089419 7.579760 175.011616 156.326583 10.838310 168.362169 -34.874873 1.076824 -13.305032 95.324025 10.266499 14.342974 21.454558 0.003109 0.000017 175.999686 1.865402 179.214957 -55.129611 3.182429 -2.964110 72.939760 6.135280 12.686579 21.454557 -0.003094 0.000005 8.320578 0.074409 1.865917 6.629035 0.042225 3.733003 6.311664 0.064608 3.732668 0.209641 7.633907 2.401647 -16.463939 -16.340063 9.719676 -138.984497 -73.661776 -43.445375 41.354178 33.006386 57.005782 -85.251743 -4.390524 2.443022 -7.218337 -9.267597 32.193536 -179.545715 82.667157 2.066713 -17.272873 -47.782742 -14.976926 -119.054103 0.924267 -3.633176 10.358750 -8.265709 -49.585222 
113.967893 0.000000 519.397821 180.000000 75.851352 180.000000 -6.823654 83.793242 2.956163 81.845188 6.946491 175.628512 157.265711 11.754250 169.434294 -37.935627 1.091847 -13.927633 99.944282 9.967318 14.388944 21.454558 0.003104 0.000016 175.023862 2.737352 178.956458 -60.958567 2.519141 -1.532118 73.347268 5.049857 12.637595 21.454556 -0.003095 0.000000 8.559504 -0.065322 1.653806 7.102857 -0.231715 3.300475 6.785337 -0.211938 3.301808 1.378244 7.806239 2.037126 -17.457427 -15.683518 9.217552 -139.797087 -73.233722 -42.634169 39.581341 34.679259 54.135234 -86.596914 -3.733282 2.455768 -6.697975 -9.644709 31.020090 -173.322102 81.921331 8.356045 -14.415647 -47.902494 -16.187888 -118.818897 0.856998 -3.618937 10.008366 -8.428075 -47.703895 
114.237559 0.000000 517.506431 180.000000 74.296241 180.000000 -6.996097 82.515831 2.834556 82.677846 5.894983 176.339791 158.050482 12.787793 170.340232 -41.463069 1.004438 -13.967931 103.635293 9.395134 13.017430 21.454558 0.003100 0.000016 173.821976 3.985311 178.659375 -66.836228 1.597381 0.130502 73.104087 3.837660 12.434913 21.454555 -0.003093 -0.000004 8.866325 -0.304082 1.416170 7.711336 -0.701632 2.808981 7.393641 -0.684805 2.813164 2.181460 7.769493 1.689622 -18.315291 -14.706821 8.563539 -141.539290 -72.695960 -40.874875 36.423492 36.886002 50.488091 -87.302493 -3.410124 2.465311 -6.087685 -10.074779 30.011358 -168.409105 80.814969 13.332284 -11.621040 -48.169860 -17.173362 -117.899200 0.877676 -3.582635 10.065603 -8.338984 -46.848810 
